<?xml version="1.0" encoding="iso-8859-1"?>
<!-- Generator: Adobe Illustrator 19.0.0, SVG Export Plug-In . SVG Version: 6.00 Build 0)  -->
<svg version="1.1" id="Capa_1" xmlns="http://www.w3.org/2000/svg" xmlns:xlink="http://www.w3.org/1999/xlink" x="0px" y="0px"
	 viewBox="0 0 512 512" style="enable-background:new 0 0 512 512;" xml:space="preserve">
<path style="fill:#FF9F00;" d="M452,131.532l-30,50.984V422l30,30l60-60V226C512,184.274,487.345,148.453,452,131.532z"/>
<path style="fill:#FFB64C;" d="M60,131.532C24.655,148.453,0,184.274,0,226v166l60,60h30V182.516L60,131.532z"/>
<path style="fill:#BB5D4C;" d="M452,332v120c0,0-53.699,53.699-60,60H120c0,0-53.699-53.699-60-60V332l43.801-30H414.5L452,332z"/>
<g>
	<path style="fill:#A44F3E;" d="M452,332v120c0,0-53.699,53.699-60,60H256V302h158.5L452,332z"/>
	<path style="fill:#A44F3E;" d="M452,131.499V272l-28.801,30H99.901L60,272V131.499C75.901,123.999,95.099,121,105,121h302
		C416.3,121,436.099,123.999,452,131.499z"/>
</g>
<path style="fill:#883F2E;" d="M452,131.499V272l-28.801,30H256V121h151C416.3,121,436.099,123.999,452,131.499z"/>
<path style="fill:#E4FEFF;" d="M316,302H196c-8.401,0-15,6.599-15,15v30c0,41.4,33.6,75,75,75s75-33.6,75-75v-30
	C331,308.599,324.401,302,316,302z"/>
<g>
	<path style="fill:#FFDE46;" d="M271,15v46c0,8.401-6.599,15-15,15s-15-6.599-15-15V15c0-8.401,6.599-15,15-15S271,6.599,271,15z"/>
	<path style="fill:#FFDE46;" d="M185.395,86.605l-30-30c-5.859-5.859-5.859-15.352,0-21.211s15.352-5.859,21.211,0l30,30
		c5.859,5.859,5.859,15.352,0,21.211C200.746,92.465,191.254,92.465,185.395,86.605z"/>
</g>
<path style="fill:#FFB64C;" d="M305.395,86.605c-5.859-5.859-5.859-15.352,0-21.211l30-30c5.859-5.859,15.352-5.859,21.211,0
	s5.859,15.352,0,21.211l-30,30C320.746,92.465,311.254,92.465,305.395,86.605z"/>
<path style="fill:#5A5A5A;" d="M271,317v30c0,8.401-6.599,15-15,15s-15-6.599-15-15v-30c0-8.401,6.599-15,15-15S271,308.599,271,317
	z"/>
<path style="fill:#9BFCFF;" d="M331,317v30c0,41.4-33.6,75-75,75V302h60C324.401,302,331,308.599,331,317z"/>
<path style="fill:#FFB64C;" d="M256,76V0c8.401,0,15,6.599,15,15v46C271,69.401,264.401,76,256,76z"/>
<path style="fill:#444444;" d="M271,317v30c0,8.401-6.599,15-15,15v-60C264.401,302,271,308.599,271,317z"/>
<path style="fill:#9BFCFF;" d="M512,497V392h-15c-57.891,0-105,47.109-105,105v15h105C505.291,512,512,505.291,512,497z"/>
<path style="fill:#E4FEFF;" d="M15,392H0v105c0,8.291,6.709,15,15,15h105v-15C120,439.109,72.891,392,15,392z"/>
<rect x="60" y="272" style="fill:#FFDE46;" width="392" height="60"/>
<rect x="256" y="272" style="fill:#FFB64C;" width="196" height="60"/>
<g>
</g>
<g>
</g>
<g>
</g>
<g>
</g>
<g>
</g>
<g>
</g>
<g>
</g>
<g>
</g>
<g>
</g>
<g>
</g>
<g>
</g>
<g>
</g>
<g>
</g>
<g>
</g>
<g>
</g>
</svg>
